<?xml version="1.0" encoding="UTF-8" standalone="no"?><!DOCTYPE svg PUBLIC "-//W3C//DTD SVG 1.1//EN" "http://www.w3.org/Graphics/SVG/1.1/DTD/svg11.dtd"><svg width="100%" height="100%" viewBox="0 0 384 71" version="1.1" xmlns="http://www.w3.org/2000/svg" xmlns:xlink="http://www.w3.org/1999/xlink" xml:space="preserve" xmlns:serif="http://www.serif.com/" style="fill-rule:evenodd;clip-rule:evenodd;stroke-linejoin:round;stroke-miterlimit:2;"><path d="M58.466,37.472c-1.386,-1.566 -3.376,-2.462 -5.467,-2.462l-11.329,0c-0.272,0 -0.404,-0.334 -0.205,-0.519l36.053,-33.625c0.331,-0.31 0.112,-0.866 -0.341,-0.866l-37.188,0c-2.188,0 -4.283,0.805 -5.802,2.23l-34.028,31.915c-0.33,0.31 -0.111,0.865 0.342,0.865l12.369,0c0.271,0 0.531,0.11 0.72,0.306l33.203,34.399c0.189,0.195 0.448,0.306 0.72,0.306l38.65,0c0.431,0 0.66,-0.509 0.375,-0.832l-28.072,-31.717Z" style="fill:#763cff;fill-rule:nonzero;"/><path d="M278.744,18.534l0,51.487l13.356,0l0,-70.021l-13.312,-0c-1.05,0 -2.03,0.469 -2.689,1.288l-26.573,34.24l-26.579,-34.249c-0.651,-0.81 -1.632,-1.279 -2.682,-1.279l-13.31,0l0,69.965l13.098,0.05l0,-51.287l29.22,36.073l29.471,-36.267Z" style="fill:#fff;fill-rule:nonzero;"/><path d="M352.047,70.021l0,-52.12c0,-0.669 -0.219,-1.319 -0.624,-1.851l-4.27,-5.617l36.598,0l0,-10.433l-77.714,0l0,10.433l31.705,0l0,59.588l14.305,0Z" style="fill:#fff;fill-rule:nonzero;"/><path d="M195.526,0l-17.208,0c-0.918,0 -1.816,0.318 -2.529,0.896l-42.03,34.075l41.918,34.146c0.713,0.583 1.614,0.902 2.535,0.902l17.153,0l-42.999,-35.03l43.16,-34.989Z" style="fill:#fff;fill-rule:nonzero;"/><rect x="119.71" y="0.192" width="14.048" height="69.638" style="fill:#fff;"/></svg>