<?xml version="1.0" encoding="UTF-8" standalone="no"?><!DOCTYPE svg PUBLIC "-//W3C//DTD SVG 1.1//EN" "http://www.w3.org/Graphics/SVG/1.1/DTD/svg11.dtd"><svg width="100%" height="100%" viewBox="0 0 112 71" version="1.1" xmlns="http://www.w3.org/2000/svg" xmlns:xlink="http://www.w3.org/1999/xlink" xml:space="preserve" xmlns:serif="http://www.serif.com/" style="fill-rule:evenodd;clip-rule:evenodd;stroke-linejoin:round;stroke-miterlimit:2;"><path d="M83.188,37.472c-1.386,-1.565 -3.376,-2.462 -5.467,-2.462l-11.329,0c-0.272,0 -0.404,-0.333 -0.205,-0.519l36.053,-33.625c0.332,-0.31 0.112,-0.866 -0.341,-0.866l-37.188,0c-2.188,0 -4.283,0.805 -5.802,2.23l-34.028,31.915c-0.33,0.311 -0.111,0.865 0.342,0.865l12.369,0c0.271,0 0.531,0.11 0.72,0.306l33.203,34.399c0.189,0.195 0.448,0.306 0.72,0.306l38.65,0c0.431,0 0.66,-0.509 0.375,-0.832l-28.072,-31.717Z" style="fill-rule:nonzero;"/><rect x="0" y="-0" width="65.383" height="70.021"/><rect x="52.968" y="51.593" width="22.347" height="18.428"/></svg>